<?xml version="1.0" standalone="no"?>
<!DOCTYPE svg PUBLIC "-//W3C//DTD SVG 20010904//EN"
 "http://www.w3.org/TR/2001/REC-SVG-20010904/DTD/svg10.dtd">
<svg version="1.0" xmlns="http://www.w3.org/2000/svg"
     width="20rem" height="auto" viewBox="0 0 1404.000000 160.000000"
 preserveAspectRatio="xMidYMid meet">
<metadata>
Created by potrace 1.16, written by Peter Selinger 2001-2019
</metadata>
<g transform="translate(0.000000,160.000000) scale(0.100000,-0.100000)"
fill="#000000" stroke="none">
<path d="M3856 1370 c-7 -14 -36 -140 -87 -382 -22 -106 -52 -245 -65 -308
-46 -216 -56 -274 -50 -308 10 -65 67 -103 151 -103 64 0 169 19 189 35 8 7
16 38 19 79 l5 67 -60 -2 c-97 -5 -101 10 -53 227 47 216 145 681 145 687 0 8
-191 15 -194 8z"/>
<path d="M4944 1371 c-8 -8 -3 -877 5 -942 10 -75 32 -109 96 -142 46 -24 101
-26 196 -8 94 18 93 16 83 102 -10 82 -3 77 -91 63 -34 -5 -45 -2 -62 15 -21
21 -21 27 -21 465 l0 445 -101 3 c-55 2 -103 1 -105 -1z"/>
<path d="M8130 1373 c-1 -4 0 -99 0 -210 0 -111 -3 -204 -8 -207 -5 -3 -26 12
-47 34 -111 114 -319 113 -434 -1 -111 -112 -153 -260 -117 -421 29 -128 99
-216 216 -272 83 -39 174 -41 263 -7 62 24 127 74 127 97 0 8 7 14 15 14 10 0
15 -10 15 -28 0 -35 23 -68 60 -87 30 -16 135 -21 144 -7 2 4 6 41 7 81 3 66
1 75 -19 91 l-22 18 0 451 0 451 -72 1 c-40 0 -85 3 -100 5 -16 3 -28 1 -28
-3z m-101 -499 c76 -49 101 -103 101 -216 0 -100 -17 -140 -76 -181 -32 -22
-56 -30 -105 -34 -81 -6 -125 12 -172 69 -47 58 -61 107 -54 185 10 99 60 172
133 192 79 22 121 18 173 -15z"/>
<path d="M8894 1371 c-8 -9 -3 -937 5 -975 11 -45 49 -88 99 -112 42 -20 126
-20 217 -1 l59 13 -4 54 c-2 30 -4 65 -4 78 -1 21 -5 22 -71 22 -38 0 -77 5
-85 10 -13 8 -15 72 -18 459 l-3 450 -95 3 c-53 2 -98 1 -100 -1z"/>
<path d="M11133 1364 c-2 -6 -3 -51 -1 -100 l3 -89 70 -3 c39 -2 84 -1 100 2
l30 6 0 94 0 95 -99 3 c-64 2 -100 -1 -103 -8z"/>
<path d="M13517 1374 c-4 -5 -7 -100 -7 -212 1 -112 -1 -207 -5 -210 -3 -4
-17 8 -31 26 -74 95 -245 125 -371 65 -55 -26 -127 -101 -165 -174 -32 -63
-33 -66 -32 -189 0 -119 2 -128 32 -193 42 -90 120 -167 199 -198 123 -47 273
-19 360 67 45 45 53 46 53 4 0 -66 95 -108 188 -84 20 6 22 12 22 85 0 44 -4
79 -10 79 -27 0 -31 53 -32 485 l-1 445 -76 0 c-42 0 -85 3 -96 6 -11 3 -24 2
-28 -2z m-132 -484 c33 -12 94 -68 111 -101 20 -39 19 -219 -1 -259 -33 -65
-172 -109 -247 -80 -81 32 -127 102 -135 203 -5 65 -3 79 21 130 15 31 42 68
60 82 52 39 127 49 191 25z"/>
<path d="M7189 1285 c-1 -47 -2 -91 -3 -97 -1 -10 25 -13 99 -13 l100 0 3 98
3 97 -101 0 -100 0 -1 -85z"/>
<path d="M9342 1273 l3 -98 60 -1 c33 0 79 1 103 4 l42 4 0 94 0 94 -105 0
-106 0 3 -97z"/>
<path d="M3306 1308 c-2 -7 -11 -58 -21 -113 -9 -55 -20 -107 -25 -115 -5 -10
-22 -15 -51 -15 l-43 0 -18 -65 c-24 -91 -25 -90 27 -90 25 0 45 -4 45 -9 0
-18 -42 -226 -66 -328 -13 -57 -24 -133 -24 -169 0 -60 3 -68 30 -94 36 -33
109 -53 164 -45 23 3 74 16 114 27 l72 21 0 63 c0 34 3 69 6 78 5 14 -4 15
-75 9 -120 -9 -119 -40 -16 425 5 20 11 22 83 22 l78 0 15 74 16 73 -75 6
c-41 3 -76 8 -78 10 -3 2 7 55 22 116 14 62 23 115 19 119 -4 4 -49 9 -101 10
-72 3 -95 1 -98 -10z"/>
<path d="M11567 1314 c-4 -4 -7 -60 -7 -125 0 -116 0 -117 -25 -123 -14 -4
-36 -4 -50 0 l-25 6 0 -81 0 -81 50 0 50 0 1 -172 c0 -95 4 -220 8 -277 l8
-105 42 -37 c60 -53 122 -65 227 -43 116 23 148 39 140 66 -3 13 -11 46 -17
75 l-12 52 -76 -5 c-115 -9 -110 -19 -112 231 l-1 210 81 3 81 3 0 74 0 75
-37 2 c-21 0 -47 0 -58 -1 -11 -1 -30 1 -42 4 -21 5 -23 11 -25 128 l-3 122
-95 3 c-53 1 -99 0 -103 -4z"/>
<path d="M689 1070 c-67 -12 -127 -41 -184 -90 -27 -24 -51 -37 -53 -31 -2 6
3 32 12 58 9 25 15 48 13 49 -5 6 -178 10 -182 4 -2 -3 -13 -51 -24 -105 -42
-204 -90 -430 -137 -647 l-6 -28 95 0 c63 0 98 4 105 13 6 6 19 57 30 112 64
318 71 344 104 389 40 54 122 106 166 106 22 0 42 -9 59 -26 24 -25 25 -30 19
-97 -3 -40 -20 -137 -36 -217 -34 -160 -47 -225 -52 -255 -3 -19 3 -20 97 -20
l100 0 47 229 c54 257 69 291 162 354 60 40 106 43 141 7 34 -33 33 -87 -5
-267 -17 -79 -37 -174 -45 -213 -8 -38 -17 -80 -21 -92 -6 -23 -5 -23 87 -23
52 0 99 4 105 8 16 10 116 493 121 587 4 70 2 85 -19 125 -32 59 -64 74 -158
73 -93 0 -167 -30 -238 -97 -27 -25 -51 -46 -54 -46 -3 0 -9 12 -13 28 -9 36
-52 91 -78 101 -38 14 -110 19 -158 11z"/>
<path d="M1883 1070 c-128 -19 -276 -128 -334 -243 -106 -209 -62 -444 98
-525 55 -28 157 -45 222 -37 75 9 176 49 232 90 209 152 263 496 100 643 -68
62 -198 91 -318 72z m146 -195 c119 -101 49 -377 -108 -424 -105 -31 -172 -3
-206 85 -37 96 -7 222 71 300 48 47 86 63 156 64 46 0 62 -5 87 -25z"/>
<path d="M2650 1065 c-101 -29 -193 -102 -226 -181 -17 -39 -18 -133 -3 -166
16 -37 70 -67 187 -107 140 -47 162 -62 162 -105 0 -23 -8 -42 -27 -61 -27
-27 -30 -27 -123 -23 -98 5 -139 19 -197 71 -19 16 -24 17 -35 6 -31 -32 -78
-104 -78 -119 0 -21 90 -74 160 -95 30 -8 87 -18 126 -22 125 -10 274 52 331
139 60 91 60 198 0 256 -31 30 -136 76 -229 102 -55 14 -98 50 -98 79 0 12 13
35 28 52 23 26 38 33 80 37 73 7 114 -4 174 -44 l52 -35 20 27 c12 16 29 35
38 43 10 9 18 21 18 28 0 7 5 13 10 13 43 0 -47 74 -119 98 -59 21 -190 24
-251 7z"/>
<path d="M6607 1070 c-161 -27 -292 -165 -318 -334 -21 -135 22 -266 118 -357
126 -120 318 -150 480 -75 55 26 163 125 163 150 0 19 -27 31 -123 54 l-67 16
-33 -31 c-39 -39 -75 -53 -132 -53 -84 0 -140 39 -181 125 -52 110 -18 247 74
306 81 51 211 33 256 -36 15 -22 19 -24 39 -14 12 7 53 20 90 30 38 10 71 20
74 23 9 9 -45 81 -85 113 -98 79 -215 106 -355 83z"/>
<path d="M10135 1070 c-66 -10 -124 -40 -171 -90 -21 -22 -42 -40 -47 -40 -5
0 -6 26 -2 59 l7 60 -92 3 c-50 2 -94 1 -96 -1 -2 -2 -4 -179 -4 -393 l0 -388
88 0 c48 0 92 4 98 8 7 4 13 87 17 240 6 244 7 251 56 303 79 83 170 89 225
16 20 -27 21 -44 26 -295 l5 -267 95 0 95 0 5 235 c5 222 7 238 28 272 84 135
242 143 272 13 5 -22 10 -149 10 -283 l0 -243 101 3 100 3 -1 284 c-1 350 -9
393 -84 459 -95 84 -309 51 -399 -60 -36 -45 -44 -47 -53 -13 -10 42 -85 101
-143 114 -57 12 -62 12 -136 1z"/>
<path d="M12346 1069 c-120 -18 -230 -100 -287 -217 -33 -64 -34 -72 -34 -182
0 -105 2 -120 28 -175 82 -176 288 -270 482 -220 92 24 138 51 202 116 32 33
59 63 61 68 3 8 -131 51 -160 51 -9 0 -26 -12 -37 -26 -34 -43 -87 -64 -164
-64 -39 0 -79 6 -95 14 -67 35 -135 146 -102 166 8 6 145 10 309 10 l293 0 -4
88 c-3 72 -10 98 -36 152 -37 74 -61 104 -126 154 -75 57 -207 83 -330 65z
m173 -162 c52 -27 102 -93 104 -137 l2 -32 -194 2 c-107 0 -199 4 -203 6 -5 3
-5 11 0 17 5 7 12 24 16 39 24 102 173 159 275 105z"/>
<path d="M4160 1037 c0 -18 16 -126 35 -242 80 -487 85 -524 76 -547 -12 -30
-93 -113 -129 -132 -16 -8 -50 -16 -76 -18 -42 -3 -46 -5 -46 -28 1 -70 1 -70
130 -70 l117 0 40 38 c66 62 136 158 228 314 6 9 60 99 121 200 127 209 175
306 208 422 l24 81 -92 6 c-50 4 -93 5 -94 3 -2 -1 -12 -33 -23 -71 -25 -93
-64 -195 -103 -273 -56 -108 -130 -233 -142 -237 -7 -2 -13 20 -17 59 -14 130
-37 346 -47 428 -5 47 -10 87 -10 90 0 3 -45 6 -100 7 l-100 2 0 -32z"/>
<path d="M5422 758 c4 -357 6 -368 85 -438 107 -94 320 -67 431 54 l41 44 7
-43 c7 -50 28 -80 68 -95 31 -12 115 -13 133 -2 7 4 12 37 14 79 2 67 0 75
-25 100 l-27 27 3 287 3 288 -90 3 c-49 2 -96 2 -102 0 -10 -3 -13 -63 -13
-253 l0 -249 -37 -42 c-73 -80 -185 -103 -243 -50 -42 38 -50 93 -50 362 l0
227 -67 6 c-38 4 -83 7 -101 7 l-33 0 3 -312z"/>
<path d="M7198 1058 c-16 -12 -17 -47 -15 -393 l2 -380 80 -3 c44 -2 90 0 102
3 l23 5 0 385 0 385 -74 0 c-41 0 -80 2 -88 5 -7 3 -21 0 -30 -7z"/>
<path d="M11213 1062 l-83 -3 0 -390 0 -390 100 3 100 3 1 325 c0 479 2 447
-18 451 -10 2 -55 3 -100 1z"/>
<path d="M9346 1053 c-8 -8 -7 -739 1 -760 4 -10 30 -13 104 -13 l99 0 0 390
0 390 -98 0 c-54 0 -102 -3 -106 -7z"/>
</g>
</svg>