<svg xmlns="http://www.w3.org/2000/svg" width="290" height="58" viewBox="0 0 290 50" preserveAspectRatio="xMidYMid meet">
    <svg width="159.35" height="55" y="2" viewBox="0 0 159.35 47.95" xmlns="http://www.w3.org/2000/svg"><g id="svgGroup"   fill-rule="evenodd" font-size="40pt"  fill="#cccccc" ><path d="M 0 36.5 L 5.55 10.3 L 11.6 10.3 L 10.55 15.15 Q 12.45 12.65 15.175 11.25 A 12.511 12.511 0 0 1 18.981 9.987 A 11.486 11.486 0 0 1 20.75 9.85 A 10.719 10.719 0 0 1 22.099 9.93 Q 22.792 10.018 23.369 10.203 A 5.019 5.019 0 0 1 24.15 10.525 Q 25.45 11.2 26.075 12.45 A 6.152 6.152 0 0 1 26.596 13.999 A 8.374 8.374 0 0 1 26.75 15.4 A 15.918 15.918 0 0 1 28.501 13.432 A 13.15 13.15 0 0 1 29.8 12.35 Q 31.45 11.15 33.275 10.5 Q 35.1 9.85 37 9.85 Q 38.497 9.85 39.549 10.189 A 4.285 4.285 0 0 1 40.55 10.65 Q 41.8 11.45 42.325 12.825 A 7.842 7.842 0 0 1 42.763 14.59 A 10.278 10.278 0 0 1 42.85 15.95 A 13.972 13.972 0 0 1 42.836 16.555 Q 42.813 17.094 42.75 17.75 A 15.802 15.802 0 0 1 42.624 18.726 Q 42.545 19.225 42.43 19.776 A 27.905 27.905 0 0 1 42.35 20.15 L 38.85 36.5 L 32.15 36.5 L 35.25 21.8 Q 35.515 20.629 35.579 19.714 A 8.017 8.017 0 0 0 35.6 19.15 A 6.37 6.37 0 0 0 35.536 18.216 Q 35.385 17.198 34.875 16.6 A 2.377 2.377 0 0 0 33.25 15.768 A 3.366 3.366 0 0 0 32.9 15.75 A 4.606 4.606 0 0 0 31.518 15.971 Q 30.971 16.143 30.404 16.448 A 8.098 8.098 0 0 0 30.4 16.45 A 8.754 8.754 0 0 0 28.758 17.606 A 10.932 10.932 0 0 0 27.95 18.4 Q 26.8 19.65 26 21.25 L 22.8 36.5 L 16.1 36.5 L 19.2 21.8 A 8.455 8.455 0 0 0 19.385 20.936 A 6.885 6.885 0 0 0 19.45 20.375 Q 19.5 19.7 19.5 19.1 A 6.628 6.628 0 0 0 19.445 18.213 Q 19.383 17.756 19.252 17.385 A 2.554 2.554 0 0 0 18.8 16.575 A 2.272 2.272 0 0 0 17.466 15.812 A 3.418 3.418 0 0 0 16.8 15.75 Q 15.253 15.75 13.614 16.876 A 9.869 9.869 0 0 0 13.075 17.275 Q 11.15 18.8 9.95 21.2 L 6.7 36.5 L 0 36.5 Z M 130.8 47.95 L 130 42.8 A 26.284 26.284 0 0 0 131.289 42.673 Q 131.918 42.595 132.453 42.49 A 11.232 11.232 0 0 0 133.275 42.3 A 6.172 6.172 0 0 0 134.94 41.577 A 5.626 5.626 0 0 0 135.5 41.175 A 8.237 8.237 0 0 0 136.28 40.442 Q 136.64 40.06 137.007 39.592 A 16.51 16.51 0 0 0 137.45 39 L 138.9 37.05 L 134.55 10.3 L 141.4 10.3 L 143.65 30.7 L 145.35 27.9 Q 146.9 25.35 148.075 23.125 A 57.933 57.933 0 0 0 149.549 20.137 A 49.019 49.019 0 0 0 150.125 18.825 Q 151 16.75 151.65 14.65 Q 152.3 12.55 152.85 10.3 L 159.35 10.3 A 51.513 51.513 0 0 1 158.291 13.745 A 44.954 44.954 0 0 1 157.9 14.825 A 52.553 52.553 0 0 1 156.783 17.55 A 62.502 62.502 0 0 1 156 19.25 Q 155.055 21.227 153.685 23.646 A 107.72 107.72 0 0 1 153.225 24.45 A 170.165 170.165 0 0 1 151.853 26.78 Q 150.612 28.85 149.05 31.35 L 145.05 37.8 A 51.692 51.692 0 0 1 143.543 40.083 Q 142.827 41.102 142.135 41.966 A 28.808 28.808 0 0 1 141.675 42.525 A 21.536 21.536 0 0 1 140.063 44.244 A 15.893 15.893 0 0 1 138.375 45.65 A 11.589 11.589 0 0 1 135.594 47.134 A 10.661 10.661 0 0 1 134.85 47.375 A 14.971 14.971 0 0 1 132.401 47.846 A 18.424 18.424 0 0 1 130.8 47.95 Z M 72.85 32.95 L 76.2 28.75 A 16.94 16.94 0 0 0 78.369 30.361 A 13.687 13.687 0 0 0 80.1 31.275 Q 82.1 32.15 84.15 32.15 Q 85.381 32.15 86.303 31.821 A 4.465 4.465 0 0 0 86.55 31.725 A 4.386 4.386 0 0 0 87.364 31.278 A 3.302 3.302 0 0 0 88.1 30.575 Q 88.65 29.85 88.65 28.9 Q 88.65 27.767 87.747 27.168 A 2.664 2.664 0 0 0 87.55 27.05 Q 86.635 26.551 84.856 25.983 A 40.476 40.476 0 0 0 84.1 25.75 Q 82.22 25.135 80.823 24.56 A 25.709 25.709 0 0 1 79.825 24.125 A 8.763 8.763 0 0 1 78.734 23.529 Q 78.189 23.176 77.785 22.774 A 4.437 4.437 0 0 1 77.35 22.275 A 3.925 3.925 0 0 1 76.672 20.751 A 5.605 5.605 0 0 1 76.55 19.55 Q 76.55 16.75 78.125 14.55 A 10.577 10.577 0 0 1 81.561 11.499 A 12.826 12.826 0 0 1 82.375 11.075 A 13.189 13.189 0 0 1 86.887 9.865 A 16.061 16.061 0 0 1 88.35 9.8 A 15.961 15.961 0 0 1 91.05 10.019 A 12.381 12.381 0 0 1 93.45 10.675 A 10.888 10.888 0 0 1 97.395 13.342 A 12.5 12.5 0 0 1 97.45 13.4 L 93.9 17.45 A 15.551 15.551 0 0 0 92.645 16.386 Q 92.004 15.901 91.384 15.558 A 8.173 8.173 0 0 0 90.825 15.275 A 7.534 7.534 0 0 0 88.033 14.611 A 8.818 8.818 0 0 0 87.6 14.6 Q 86.3 14.6 85.275 14.975 A 4.05 4.05 0 0 0 84.356 15.444 A 3.313 3.313 0 0 0 83.65 16.1 Q 83.05 16.85 83.05 17.9 A 2.24 2.24 0 0 0 83.15 18.587 A 1.714 1.714 0 0 0 83.975 19.575 A 6.55 6.55 0 0 0 84.523 19.848 Q 85.163 20.135 86.151 20.466 A 39.884 39.884 0 0 0 87.2 20.8 A 40.559 40.559 0 0 1 89.155 21.409 Q 90.056 21.717 90.82 22.035 A 18.66 18.66 0 0 1 91.8 22.475 Q 93.248 23.179 94.114 24.094 A 5.222 5.222 0 0 1 94.5 24.55 A 4.365 4.365 0 0 1 95.263 26.254 A 6.253 6.253 0 0 1 95.4 27.6 A 8.531 8.531 0 0 1 94.857 30.673 A 7.907 7.907 0 0 1 93.9 32.45 A 9.572 9.572 0 0 1 91.161 34.994 A 12.287 12.287 0 0 1 89.7 35.775 A 13.321 13.321 0 0 1 86.378 36.766 A 18.06 18.06 0 0 1 83.4 37 Q 80.2 37 77.375 35.95 A 12.465 12.465 0 0 1 74.902 34.722 A 9.805 9.805 0 0 1 72.85 32.95 Z M 100.65 30.5 L 103.85 15.45 L 100.6 15.45 L 101.7 10.3 L 104.9 10.3 L 106.7 1.8 L 113.4 1.8 L 111.6 10.3 L 116.85 10.3 L 115.75 15.45 L 110.55 15.45 L 107.8 28.25 Q 107.75 28.45 107.725 28.65 Q 107.7 28.85 107.7 29.05 A 2.576 2.576 0 0 0 107.744 29.541 Q 107.855 30.113 108.25 30.4 A 2.062 2.062 0 0 0 109.124 30.761 A 2.785 2.785 0 0 0 109.6 30.8 Q 110.25 30.8 110.925 30.65 A 7.653 7.653 0 0 0 112.087 30.296 A 7.023 7.023 0 0 0 112.2 30.25 A 20.851 20.851 0 0 1 112.629 30.077 Q 112.841 29.994 113.031 29.926 A 10.761 10.761 0 0 1 113.25 29.85 L 113.45 35.15 A 22.196 22.196 0 0 1 112.387 35.594 A 29.32 29.32 0 0 1 111.2 36.025 Q 109.95 36.45 108.6 36.7 Q 107.25 36.95 105.9 36.95 Q 103.662 36.95 102.149 35.975 A 5.325 5.325 0 0 1 102 35.875 A 3.423 3.423 0 0 1 100.642 33.903 Q 100.45 33.211 100.45 32.35 Q 100.45 31.9 100.5 31.45 A 10.396 10.396 0 0 1 100.582 30.868 A 12.419 12.419 0 0 1 100.65 30.5 Z M 117.75 30.45 L 124.25 0 L 130.9 0 L 124.95 28.1 Q 124.9 28.35 124.875 28.6 Q 124.85 28.85 124.85 29.1 Q 124.85 31.15 126.9 31.15 A 3.704 3.704 0 0 0 127.395 31.114 Q 127.643 31.081 127.919 31.016 A 7.135 7.135 0 0 0 128.175 30.95 Q 128.9 30.75 129.55 30.45 L 129.35 35.55 A 12.009 12.009 0 0 1 127.735 36.156 A 16.221 16.221 0 0 1 126.1 36.55 Q 124.51 36.851 123.216 36.893 A 12.732 12.732 0 0 1 122.8 36.9 A 8.546 8.546 0 0 1 121.28 36.773 Q 120.442 36.622 119.777 36.288 A 4.225 4.225 0 0 1 118.925 35.725 A 3.804 3.804 0 0 1 117.671 33.566 A 5.773 5.773 0 0 1 117.55 32.35 A 5.853 5.853 0 0 1 117.607 31.543 A 6.497 6.497 0 0 1 117.625 31.425 Q 117.7 30.95 117.75 30.45 Z M 53.869 36.793 A 15.785 15.785 0 0 0 56.5 37 A 18.379 18.379 0 0 0 57.792 36.955 A 15.467 15.467 0 0 0 62.925 35.725 Q 65.85 34.45 68 32.2 Q 70.15 29.95 71.325 27.05 Q 72.5 24.15 72.5 20.95 A 15.525 15.525 0 0 0 72.419 19.345 A 12.608 12.608 0 0 0 71.35 15.35 Q 70.2 12.85 67.775 11.35 A 8.526 8.526 0 0 0 66.769 10.818 Q 65.603 10.297 64.181 10.057 A 15.785 15.785 0 0 0 61.55 9.85 A 18.379 18.379 0 0 0 60.258 9.895 A 15.467 15.467 0 0 0 55.125 11.125 Q 52.2 12.4 50.05 14.65 Q 47.9 16.9 46.725 19.8 Q 45.55 22.7 45.55 25.9 A 15.442 15.442 0 0 0 45.59 27.025 A 12.915 12.915 0 0 0 46.7 31.475 Q 47.85 34 50.275 35.5 A 8.526 8.526 0 0 0 51.281 36.032 Q 52.447 36.553 53.869 36.793 Z M 57.5 31.3 Q 59.05 31.3 60.5 30.6 Q 61.95 29.9 63.075 28.6 A 9.987 9.987 0 0 0 64.606 26.19 A 11.65 11.65 0 0 0 64.875 25.55 A 10.196 10.196 0 0 0 65.526 22.508 A 11.966 11.966 0 0 0 65.55 21.75 A 10.084 10.084 0 0 0 65.424 20.118 A 7.397 7.397 0 0 0 64.975 18.5 A 5.195 5.195 0 0 0 64.209 17.189 A 4.448 4.448 0 0 0 63.275 16.325 A 4.337 4.337 0 0 0 61.504 15.626 A 5.791 5.791 0 0 0 60.55 15.55 Q 59 15.55 57.575 16.25 A 8.127 8.127 0 0 0 55.441 17.784 A 9.575 9.575 0 0 0 55 18.25 A 9.636 9.636 0 0 0 53.445 20.676 A 11.314 11.314 0 0 0 53.175 21.325 A 10.5 10.5 0 0 0 52.511 24.626 A 12.141 12.141 0 0 0 52.5 25.15 A 9.611 9.611 0 0 0 52.643 26.847 A 7.367 7.367 0 0 0 53.075 28.35 A 5.195 5.195 0 0 0 53.841 29.661 A 4.448 4.448 0 0 0 54.775 30.525 A 4.337 4.337 0 0 0 56.546 31.224 A 5.791 5.791 0 0 0 57.5 31.3 Z" vector-effect="non-scaling-stroke"/></g></svg>
    <svg width="130" height="45" x="147" y="6" viewBox="0 0 111.85 47.95" xmlns="http://www.w3.org/2000/svg"><g id="svgGroup" stroke-linecap="round" fill-rule="evenodd" font-size="40pt"  fill="#ffffff" ><path d="M 14.75 26.35 L 14.75 10.35 L 20.25 10.35 L 20.25 25.25 Q 20.25 28.75 21.525 30.525 A 4.14 4.14 0 0 0 24.566 32.263 A 6.114 6.114 0 0 0 25.25 32.3 Q 26.8 32.3 28.275 31.65 A 8.25 8.25 0 0 0 30.507 30.181 A 9.77 9.77 0 0 0 30.975 29.725 A 9.525 9.525 0 0 0 32.599 27.412 A 11.308 11.308 0 0 0 32.95 26.65 L 32.95 10.35 L 38.45 10.35 L 38.45 30.3 A 4.071 4.071 0 0 0 38.475 30.766 Q 38.543 31.356 38.8 31.65 A 1.138 1.138 0 0 0 39.21 31.941 Q 39.385 32.017 39.605 32.058 A 2.829 2.829 0 0 0 39.95 32.1 L 39.95 36.5 Q 39.19 36.634 38.669 36.688 A 9.185 9.185 0 0 1 38.55 36.7 A 12.112 12.112 0 0 1 37.785 36.746 A 10.431 10.431 0 0 1 37.5 36.75 A 4.501 4.501 0 0 1 36.323 36.603 A 3.478 3.478 0 0 1 35 35.925 Q 34 35.1 33.85 33.8 L 33.75 31.2 A 11.915 11.915 0 0 1 30.554 34.687 A 11.435 11.435 0 0 1 29.2 35.525 A 12.945 12.945 0 0 1 23.259 36.999 A 15.102 15.102 0 0 1 23.05 37 A 9.923 9.923 0 0 1 20.575 36.709 A 6.688 6.688 0 0 1 16.85 34.3 A 8.708 8.708 0 0 1 15.49 31.685 Q 14.75 29.467 14.75 26.35 Z M 104.85 15.3 L 104.85 0 L 110.35 0 L 110.35 30.3 A 4.071 4.071 0 0 0 110.375 30.766 Q 110.443 31.356 110.7 31.65 A 1.138 1.138 0 0 0 111.11 31.941 Q 111.285 32.017 111.505 32.058 A 2.829 2.829 0 0 0 111.85 32.1 L 111.85 36.5 A 30.406 30.406 0 0 1 111.119 36.609 Q 110.088 36.75 109.45 36.75 A 4.431 4.431 0 0 1 108.101 36.552 A 3.731 3.731 0 0 1 106.825 35.85 Q 105.75 34.95 105.7 33.7 L 105.65 31.75 Q 104.15 34.25 101.6 35.625 A 11.14 11.14 0 0 1 97.154 36.966 A 10.843 10.843 0 0 1 96.3 37 A 12.126 12.126 0 0 1 92.676 36.469 A 11.076 11.076 0 0 1 91.325 35.95 Q 89.05 34.9 87.375 33 Q 85.7 31.1 84.775 28.65 Q 83.85 26.2 83.85 23.45 A 15.997 15.997 0 0 1 84.446 19.026 A 14.179 14.179 0 0 1 85.375 16.625 A 13.024 13.024 0 0 1 88.076 12.919 A 12.175 12.175 0 0 1 89.55 11.725 A 10.375 10.375 0 0 1 95.116 9.911 A 12.702 12.702 0 0 1 95.65 9.9 Q 98.65 9.9 101.075 11.45 A 11.87 11.87 0 0 1 103.848 13.871 A 10.804 10.804 0 0 1 104.85 15.3 Z M 68.65 16.4 L 63.3 18.1 Q 62.4 16.45 60.775 15.525 Q 59.15 14.6 57.2 14.6 Q 55 14.6 53.225 15.725 A 7.856 7.856 0 0 0 50.49 18.702 A 9.287 9.287 0 0 0 50.425 18.825 Q 49.4 20.8 49.4 23.4 Q 49.4 25.9 50.45 27.925 A 8.673 8.673 0 0 0 52.224 30.296 A 8.024 8.024 0 0 0 53.275 31.125 Q 55.05 32.3 57.25 32.3 Q 58.6 32.3 59.875 31.825 A 7.408 7.408 0 0 0 61.572 30.939 A 6.696 6.696 0 0 0 62.1 30.525 A 5.448 5.448 0 0 0 62.907 29.663 A 4.278 4.278 0 0 0 63.45 28.7 L 68.85 30.3 A 9.893 9.893 0 0 1 66.429 33.656 A 11.343 11.343 0 0 1 66.325 33.75 A 12.417 12.417 0 0 1 63.071 35.836 A 14.418 14.418 0 0 1 62.375 36.125 A 13.063 13.063 0 0 1 59.163 36.897 A 16.327 16.327 0 0 1 57.3 37 A 14.977 14.977 0 0 1 54.051 36.66 A 12.48 12.48 0 0 1 51.775 35.925 Q 49.3 34.85 47.5 32.95 Q 45.7 31.05 44.725 28.6 Q 43.75 26.15 43.75 23.4 A 14.136 14.136 0 0 1 44.653 18.316 A 13.341 13.341 0 0 1 45.425 16.65 Q 47.1 13.6 50.125 11.75 A 12.451 12.451 0 0 1 54.698 10.099 A 16.406 16.406 0 0 1 57.3 9.9 Q 61.3 9.9 64.275 11.675 Q 67.25 13.45 68.65 16.4 Z M 0 30.95 L 0 0 L 5.5 0 L 5.5 28.95 A 10.411 10.411 0 0 0 5.529 29.756 Q 5.631 31.07 6.1 31.5 A 2.076 2.076 0 0 0 7.353 32.039 A 2.752 2.752 0 0 0 7.6 32.05 A 8.866 8.866 0 0 0 8.887 31.96 A 7.563 7.563 0 0 0 9.475 31.85 A 9.336 9.336 0 0 0 10.246 31.641 Q 10.655 31.509 11 31.35 L 11.8 35.7 A 12.972 12.972 0 0 1 10.664 36.109 Q 10.075 36.292 9.405 36.449 A 22.509 22.509 0 0 1 8.95 36.55 A 17.897 17.897 0 0 1 7.573 36.789 Q 6.889 36.879 6.278 36.896 A 10.077 10.077 0 0 1 6 36.9 Q 3.342 36.9 1.765 35.481 A 5.094 5.094 0 0 1 1.6 35.325 Q 0 33.75 0 30.95 Z M 78.9 36.5 L 73.4 36.5 L 73.4 10.35 L 78.9 10.35 L 78.9 36.5 Z M 104.85 27.1 L 104.85 20.25 Q 104.3 18.65 103.075 17.375 Q 101.85 16.1 100.325 15.35 A 7.483 7.483 0 0 0 98.665 14.754 A 6.203 6.203 0 0 0 97.3 14.6 A 7.05 7.05 0 0 0 95.191 14.908 A 6.324 6.324 0 0 0 94.125 15.35 Q 92.7 16.1 91.675 17.35 Q 90.65 18.6 90.1 20.2 Q 89.55 21.8 89.55 23.55 Q 89.55 25.35 90.15 26.925 Q 90.75 28.5 91.875 29.725 Q 93 30.95 94.475 31.625 A 7.534 7.534 0 0 0 97.267 32.289 A 8.818 8.818 0 0 0 97.7 32.3 A 6.476 6.476 0 0 0 99.574 32.015 A 7.508 7.508 0 0 0 99.925 31.9 Q 101.05 31.5 102.075 30.8 Q 103.1 30.1 103.825 29.15 Q 104.55 28.2 104.85 27.1 Z M 78.9 6.05 L 73.4 6.05 L 73.4 0 L 78.9 0 L 78.9 6.05 Z" vector-effect="non-scaling-stroke"/></g></svg>
</svg>