<svg xmlns="http://www.w3.org/2000/svg" width="40" height="30" viewBox="0 0 40 30" preserveAspectRatio="xMidYMid meet">
    <defs>
        <style type="text/css">
           
            rect {
            fill: #e0e0e0; /* Light grey background */
            }
            text {
            fill: black;
            }

            /* Dark mode */
            @media (prefers-color-scheme: dark) {
            rect {
            fill: #333333; /* Dark grey background */
            }
            text {
            fill: white;
            }
            }
      
            
        </style>
    </defs>

    <!-- Rounded rectangle background -->
    <rect x="0" y="0" width="40" height="30" rx="10" ry="10" />

    <!-- Text elements -->
    <svg width="80.3" height="15.2" y="8" x="-24" viewBox="0 0 84.3 53.2" xmlns="http://www.w3.org/2000/svg"><g id="svgGroup"  fill-rule="evenodd" font-size="9pt"  fill="#cccccc" ><path d="M 0 53.2 L 11.2 0.9 L 21.1 0.9 L 18.9 11.4 Q 22.8 6.1 28.3 3.05 A 24.237 24.237 0 0 1 35.292 0.429 A 21.797 21.797 0 0 1 39.6 0 Q 42.877 0 45.248 0.974 A 9.982 9.982 0 0 1 46.25 1.45 Q 48.9 2.9 50.2 5.55 Q 51.5 8.2 51.7 11.9 Q 54.6 8 57.95 5.35 Q 61.3 2.7 65.05 1.35 Q 68.8 0 72.6 0 A 19.649 19.649 0 0 1 75.288 0.172 Q 76.642 0.36 77.76 0.751 A 8.859 8.859 0 0 1 79.55 1.6 Q 82.1 3.2 83.2 6 A 15.317 15.317 0 0 1 84.058 9.229 Q 84.298 10.754 84.3 12.473 A 24.778 24.778 0 0 1 84.3 12.5 Q 84.3 14.3 84 16.5 Q 83.7 18.7 83.2 21.3 L 76.4 53.2 L 65.4 53.2 L 71.6 23.9 Q 72.228 21.074 72.363 18.802 A 20.28 20.28 0 0 0 72.4 17.6 A 14.951 14.951 0 0 0 72.258 15.463 Q 71.909 13.051 70.7 11.7 Q 69 9.8 66 9.8 A 11.688 11.688 0 0 0 61.989 10.533 A 14.865 14.865 0 0 0 60.15 11.35 A 18.957 18.957 0 0 0 56.283 14.072 A 23.322 23.322 0 0 0 54.65 15.7 A 28.887 28.887 0 0 0 51.062 20.625 A 33.641 33.641 0 0 0 50.2 22.2 L 43.7 53.2 L 32.7 53.2 L 38.9 23.9 Q 39.367 22.126 39.529 20.658 A 15.792 15.792 0 0 0 39.55 20.45 A 32.248 32.248 0 0 0 39.685 18.39 A 27.479 27.479 0 0 0 39.7 17.5 A 15.88 15.88 0 0 0 39.573 15.42 Q 39.268 13.112 38.222 11.798 A 4.64 4.64 0 0 0 38.1 11.65 Q 36.545 9.852 33.573 9.802 A 10.179 10.179 0 0 0 33.4 9.8 A 11.604 11.604 0 0 0 28.915 10.746 Q 27.325 11.408 25.708 12.533 A 22.63 22.63 0 0 0 24.8 13.2 A 24.143 24.143 0 0 0 18.778 20.102 A 29.123 29.123 0 0 0 17.7 22.1 L 11 53.2 L 0 53.2 Z" vector-effect="non-scaling-stroke"/></g></svg>
    <svg width="26" height="19" x="20" y="4.2" viewBox="0 0 26 73.8" xmlns="http://www.w3.org/2000/svg"><g id="svgGroup" stroke-linecap="round" fill-rule="evenodd" font-size="9pt"  fill="#ffffff" ><path d="M 0 60.9 L 0 0 L 13.4 0 L 13.4 56.2 A 16.9 16.9 0 0 0 13.47 57.806 Q 13.691 60.103 14.6 61.05 A 3.959 3.959 0 0 0 16.704 62.184 A 5.854 5.854 0 0 0 17.9 62.3 A 14.003 14.003 0 0 0 20.514 62.046 A 16.115 16.115 0 0 0 21.2 61.9 Q 22.9 61.5 24.2 60.9 L 26 71.1 A 22.478 22.478 0 0 1 22.877 72.312 A 30.522 30.522 0 0 1 19.7 73.1 A 41.867 41.867 0 0 1 16.684 73.579 Q 15.121 73.765 13.715 73.795 A 24.804 24.804 0 0 1 13.2 73.8 A 19.077 19.077 0 0 1 9.372 73.439 Q 5.768 72.701 3.45 70.45 A 10.859 10.859 0 0 1 0.548 65.388 Q 0.077 63.654 0.011 61.586 A 21.443 21.443 0 0 1 0 60.9 Z" vector-effect="non-scaling-stroke"/></g></svg>
</svg>