<?xml version="1.0" encoding="UTF-8" standalone="no"?>
<!-- Created with Inkscape (http://www.inkscape.org/) -->

<svg
   xmlns:dc="http://purl.org/dc/elements/1.1/"
   xmlns:cc="http://creativecommons.org/ns#"
   xmlns:rdf="http://www.w3.org/1999/02/22-rdf-syntax-ns#"
   xmlns:svg="http://www.w3.org/2000/svg"
   xmlns="http://www.w3.org/2000/svg"
   xmlns:sodipodi="http://sodipodi.sourceforge.net/DTD/sodipodi-0.dtd"
   xmlns:inkscape="http://www.inkscape.org/namespaces/inkscape"
   id="svg2"
   version="1.1"
   inkscape:version="0.48.4 r9939"
   width="1198.358"
   height="799.98639"
   xml:space="preserve"
   sodipodi:docname="zh-2.svg"><metadata
     id="metadata8"><rdf:RDF><cc:Work
         rdf:about=""><dc:format>image/svg+xml</dc:format><dc:type
           rdf:resource="http://purl.org/dc/dcmitype/StillImage" /><dc:title /></cc:Work></rdf:RDF></metadata><defs
     id="defs6" /><sodipodi:namedview
     pagecolor="#ffffff"
     bordercolor="#666666"
     borderopacity="1"
     objecttolerance="10"
     gridtolerance="10"
     guidetolerance="10"
     inkscape:pageopacity="0"
     inkscape:pageshadow="2"
     inkscape:window-width="1366"
     inkscape:window-height="715"
     id="namedview4"
     showgrid="false"
     inkscape:zoom="0.585"
     inkscape:cx="599.18921"
     inkscape:cy="400"
     inkscape:window-x="-8"
     inkscape:window-y="-8"
     inkscape:window-maximized="1"
     inkscape:current-layer="g10"
     fit-margin-top="0"
     fit-margin-left="0"
     fit-margin-right="0"
     fit-margin-bottom="0" /><g
     id="g10"
     inkscape:groupmode="layer"
     inkscape:label="zh-2"
     transform="matrix(1.25,0,0,-1.25,471.17838,485.44026)"><g
       id="g12"
       transform="matrix(4.6810631,0,0,4.6810631,-376.9427,-251.6353)"><path
         d="m 0,136.609 204.777,0 0,-136.531 L 0,0.078 0,136.609 z"
         style="fill:#de2910;fill-opacity:1;fill-rule:nonzero;stroke:none"
         id="path14"
         inkscape:connector-curvature="0" /><path
         d="m 0.074,68.343 0,-68.265 101.61,0 0,27.176 C 79.363,27.726 61.375,45.933 61.262,68.343 l -61.188,0 z"
         style="fill:#000095;fill-opacity:1;fill-rule:nonzero;stroke:none"
         id="path16"
         inkscape:connector-curvature="0" /><path
         d="M 45.762,34.211 38.934,8.609 32.109,34.211 38.934,59.808 m 0,-32.426 25.597,6.829 -25.597,6.824 -25.598,-6.824"
         style="fill:#ffffff;fill-opacity:1;fill-rule:nonzero;stroke:none"
         id="path18"
         inkscape:connector-curvature="0" /><path
         d="M 44.848,30.797 26.137,12.039 33.023,37.625 51.734,56.379 M 35.523,28.297 61.102,21.41 42.348,40.121 16.766,47.011"
         style="fill:#ffffff;fill-opacity:1;fill-rule:nonzero;stroke:none"
         id="path20"
         inkscape:connector-curvature="0" /><path
         d="M 42.348,28.297 16.766,21.41 35.523,40.121 61.102,47.011 M 33.023,30.797 51.734,12.039 44.848,37.625 26.137,56.379"
         style="fill:#ffffff;fill-opacity:1;fill-rule:nonzero;stroke:none"
         id="path22"
         inkscape:connector-curvature="0" /><path
         d="m 53.441,34.211 c 0,-8.012 -6.496,-14.508 -14.507,-14.508 -8.012,0 -14.504,6.496 -14.504,14.508 0,8.011 6.492,14.507 14.504,14.507 8.011,0 14.507,-6.496 14.507,-14.507 z"
         style="fill:#000095;fill-opacity:1;fill-rule:nonzero;stroke:none"
         id="path24"
         inkscape:connector-curvature="0" /><path
         d="m 51.734,34.211 c 0,-7.071 -5.73,-12.801 -12.8,-12.801 -7.067,0 -12.797,5.73 -12.797,12.801 0,7.07 5.73,12.8 12.797,12.8 7.07,0 12.8,-5.73 12.8,-12.8 z"
         style="fill:#ffffff;fill-opacity:1;fill-rule:nonzero;stroke:none"
         id="path26"
         inkscape:connector-curvature="0" /><path
         d="M 143.402,67.925 C 143.094,45.465 124.836,27.32 102.332,27.203 l 0,-1.41 0.238,0 0,-24.266 -0.238,0 0,-1.465 102.469,0 0,67.863 -61.399,0 z"
         style="fill:#00785e;fill-opacity:1;fill-rule:evenodd;stroke:none"
         id="path28"
         inkscape:connector-curvature="0" /><path
         d="m 166.777,24.75 c -2.504,-1.727 -5.136,-5.473 -11.226,-5.473 -8.613,0 -11.813,2.531 -14.367,4.449 -0.098,0.281 2.187,1.317 2.187,1.317 3.457,-2.418 7.293,-4.551 14.461,-4.239 -8.848,0.786 -14.84,5.621 -16.648,10.082 4.789,3.329 12.718,3.266 19.218,-1.32 -2.031,2.512 -8.816,5.305 -13.89,4.52 -0.731,0.754 -1.364,1.699 -2.094,2.453 5.836,1.285 13.953,-2.418 16.937,-5.465 -3.14,4.992 -5.425,10.644 -1.714,17.519 0.73,-0.691 1.554,-1.378 2.285,-2.07 -2.793,-5.055 -1.778,-10.961 0.476,-15.074 -3.902,7.976 -0.761,15.859 4.375,19.687 5.137,-3.828 8.278,-11.711 4.375,-19.687 2.254,4.113 3.27,10.019 0.477,15.074 0.73,0.692 1.555,1.379 2.285,2.07 3.711,-6.875 1.426,-12.527 -1.715,-17.519 2.985,3.047 11.102,6.75 16.938,5.465 -0.731,-0.754 -1.364,-1.699 -2.094,-2.453 -5.074,0.785 -11.859,-2.008 -13.891,-4.52 6.5,4.586 14.43,4.649 19.219,1.32 -1.808,-4.461 -7.801,-9.296 -16.648,-10.082 7.168,-0.312 11.004,1.821 14.461,4.239 0,0 2.285,-1.036 2.187,-1.317 -2.555,-1.918 -5.754,-4.449 -14.367,-4.449 -6.09,0 -8.723,3.746 -11.227,5.473 z"
         style="fill:#ffffff;fill-opacity:1;fill-rule:evenodd;stroke:none"
         id="path30"
         inkscape:connector-curvature="0" /><path
         d="m 166.777,23.082 c -3.586,-2.977 -5.746,-4.86 -10.5,-4.86 l -14.32,0.02 c 0.363,-0.684 0.758,-1.352 1.172,-2.004 l 13.562,-0.02 c 6.516,0 10.086,4.133 10.086,4.133 0,0 3.571,-4.133 10.086,-4.133 l 13.563,0.016 c 0.414,0.648 0.804,1.32 1.164,2.004 l -14.313,-0.016 c -4.754,0 -6.914,1.883 -10.5,4.86 z"
         style="fill:#ffffff;fill-opacity:1;fill-rule:evenodd;stroke:none"
         id="path32"
         inkscape:connector-curvature="0" /><path
         d="m 166.777,64.797 1.309,-3.993 4.242,0 -3.43,-2.468 1.309,-3.993 -3.43,2.469 -3.429,-2.469 1.308,3.993 -3.429,2.468 4.242,0 1.308,3.993 z"
         style="fill:#fbd116;fill-opacity:1;fill-rule:nonzero;stroke:none"
         id="path34"
         inkscape:connector-curvature="0" /><path
         d="m 141.297,46.949 2.578,-0.543 1.316,2.262 0.278,-2.598 2.578,-0.543 -2.406,-1.062 0.273,-2.594 -1.766,1.937 -2.406,-1.062 1.317,2.261 -1.762,1.942 z"
         style="fill:#fbd116;fill-opacity:1;fill-rule:nonzero;stroke:none"
         id="path36"
         inkscape:connector-curvature="0" /><path
         d="m 150.246,58.566 1.957,-1.746 2.285,1.305 -1.074,-2.383 1.961,-1.746 -2.621,0.273 -1.074,-2.387 -0.547,2.555 -2.621,0.274 2.281,1.304 -0.547,2.551 z"
         style="fill:#fbd116;fill-opacity:1;fill-rule:nonzero;stroke:none"
         id="path38"
         inkscape:connector-curvature="0" /><path
         d="m 192.258,46.949 -2.578,-0.543 -1.317,2.262 -0.277,-2.598 -2.578,-0.543 2.41,-1.062 -0.277,-2.594 1.765,1.937 2.407,-1.062 -1.317,2.261 1.762,1.942 z"
         style="fill:#fbd116;fill-opacity:1;fill-rule:nonzero;stroke:none"
         id="path40"
         inkscape:connector-curvature="0" /><path
         d="m 183.309,58.566 -1.957,-1.746 -2.286,1.305 1.075,-2.383 -1.961,-1.746 2.621,0.273 1.074,-2.387 0.547,2.555 2.621,0.274 -2.281,1.304 0.547,2.551 z"
         style="fill:#fbd116;fill-opacity:1;fill-rule:nonzero;stroke:none"
         id="path42"
         inkscape:connector-curvature="0" /><path
         d="m 144.383,14.445 c 0.18,-0.234 0.359,-0.465 0.543,-0.695 l 43.703,0 c 0.184,0.23 0.363,0.461 0.543,0.695 l -44.789,0 z m 2.406,-2.773 c 0.473,-0.481 0.965,-0.942 1.473,-1.387 l 37.031,0 c 0.508,0.445 1,0.906 1.473,1.387 l -39.977,0 z m 3.195,-2.774 c 1.028,-0.762 2.106,-1.457 3.239,-2.078 l 27.109,0 c 1.133,0.621 2.211,1.316 3.238,2.078 l -33.586,0 z m 4.579,-2.769 c 3.589,-1.727 7.609,-2.719 11.851,-2.774 l 0.727,0 c 4.242,0.055 8.261,1.047 11.851,2.774 l -24.429,0 z"
         style="fill:#ffffff;fill-opacity:1;fill-rule:nonzero;stroke:none"
         id="path44"
         inkscape:connector-curvature="0" /><path
         d="m 101.82,69.07 c -7.336,2.949 -11.398,10.801 -9.554,18.461 1.843,7.66 9.043,12.824 16.922,12.141 -2.59,-1.27 -4.278,-4.364 -2.149,-7.567 2.34,-3.515 1.035,-9.449 -3.508,-11.57 -3.539,-1.656 -6.426,-7.168 -1.711,-11.465 z"
         style="fill:#ffffff;fill-opacity:1;fill-rule:nonzero;stroke:none"
         id="path46"
         inkscape:connector-curvature="0" /><path
         d="m 100.383,85.656 1.996,4.574 -4.313,-2.535 4.985,-0.477 -3.754,3.305 1.086,-4.867 z"
         style="fill:#de2910;fill-opacity:1;fill-rule:nonzero;stroke:none"
         id="path48"
         inkscape:connector-curvature="0" /><path
         d="M 101.898,69.308 C 95.914,72.902 95.629,81 98.664,85.484 l -0.387,0.246 c -2.918,-4.14 -3.211,-12.89 3.407,-16.828 l 0.214,0.406 z"
         style="fill:#de2910;fill-opacity:1;fill-rule:nonzero;stroke:none"
         id="path50"
         inkscape:connector-curvature="0" /><path
         d="m 101.82,69.07 c 0.551,7.859 6.793,14.133 14.68,14.754 7.891,0.621 15.043,-4.598 16.828,-12.274 -2.012,2.063 -5.492,2.704 -7.894,-0.304 -2.633,-3.301 -8.704,-3.899 -12.137,-0.254 -2.672,2.844 -8.828,3.871 -11.477,-1.922 z"
         style="fill:#ffffff;fill-opacity:1;fill-rule:nonzero;stroke:none"
         id="path52"
         inkscape:connector-curvature="0" /><path
         d="m 117.219,75.554 4.984,-0.476 -3.75,3.304 1.086,-4.867 1.996,4.575 -4.316,-2.536 z"
         style="fill:#de2910;fill-opacity:1;fill-rule:nonzero;stroke:none"
         id="path54"
         inkscape:connector-curvature="0" /><path
         d="m 102.074,69.07 c 1.586,6.777 9.227,9.551 14.449,8.062 l 0.118,0.446 c -4.856,1.48 -13.309,-0.946 -15.02,-8.43 l 0.453,-0.078 z"
         style="fill:#de2910;fill-opacity:1;fill-rule:nonzero;stroke:none"
         id="path56"
         inkscape:connector-curvature="0" /><path
         d="M 101.82,69.07 C 96.738,63.035 87.984,61.609 81.234,65.726 74.488,69.84 71.781,78.25 74.871,85.504 c 0.41,-2.848 2.848,-5.403 6.563,-4.375 4.078,1.128 9.343,-1.942 9.968,-6.899 0.489,-3.863 4.856,-8.297 10.418,-5.16 z"
         style="fill:#ffffff;fill-opacity:1;fill-rule:nonzero;stroke:none"
         id="path58"
         inkscape:connector-curvature="0" /><path
         d="m 85.539,72.836 -3.754,3.3 1.086,-4.867 1.996,4.574 -4.316,-2.535 4.988,-0.472 z"
         style="fill:#de2910;fill-opacity:1;fill-rule:nonzero;stroke:none"
         id="path60"
         inkscape:connector-curvature="0" /><path
         d="M 101.617,69.215 C 96.336,64.66 88.516,66.894 85.168,71.152 l -0.355,-0.293 c 3.054,-4.039 11.324,-7.023 17.128,-1.969 l -0.324,0.325 z"
         style="fill:#de2910;fill-opacity:1;fill-rule:nonzero;stroke:none"
         id="path62"
         inkscape:connector-curvature="0" /><path
         d="m 101.82,69.07 c 7.68,1.91 15.602,-2.066 18.629,-9.344 3.031,-7.277 0.258,-15.668 -6.523,-19.726 1.347,2.543 0.887,6.039 -2.731,7.382 -3.965,1.473 -6.41,7.036 -3.988,11.415 1.887,3.41 0.969,9.554 -5.387,10.273 z"
         style="fill:#ffffff;fill-opacity:1;fill-rule:nonzero;stroke:none"
         id="path64"
         inkscape:connector-curvature="0" /><path
         d="m 112.773,56.496 1.086,-4.871 1.996,4.574 -4.316,-2.531 4.988,-0.477 -3.754,3.305 z"
         style="fill:#de2910;fill-opacity:1;fill-rule:nonzero;stroke:none"
         id="path66"
         inkscape:connector-curvature="0" /><path
         d="m 101.902,68.832 c 6.961,0.593 11.969,-5.789 12.164,-11.192 l 0.457,0.028 c -0.082,5.054 -5.011,12.308 -12.691,11.617 l 0.07,-0.453 z"
         style="fill:#de2910;fill-opacity:1;fill-rule:nonzero;stroke:none"
         id="path68"
         inkscape:connector-curvature="0" /><path
         d="m 101.82,69.07 c 4.196,-6.68 2.852,-15.41 -3.164,-20.531 -6.015,-5.117 -14.886,-5.082 -20.859,0.086 2.848,-0.493 6.039,1.027 6.207,4.867 0.184,4.207 4.742,8.246 9.668,7.305 3.84,-0.731 9.43,2.035 8.148,8.273 z"
         style="fill:#ffffff;fill-opacity:1;fill-rule:nonzero;stroke:none"
         id="path70"
         inkscape:connector-curvature="0" /><path
         d="m 93.195,54.812 -4.316,-2.535 4.988,-0.477 -3.754,3.305 1.086,-4.867 1.996,4.574 z"
         style="fill:#de2910;fill-opacity:1;fill-rule:nonzero;stroke:none"
         id="path72"
         inkscape:connector-curvature="0" /><path
         d="m 101.621,68.922 c 2.715,-6.411 -1.832,-13.125 -6.933,-14.981 l 0.167,-0.426 c 4.805,1.645 10.208,8.551 7.176,15.61 l -0.41,-0.203 z"
         style="fill:#de2910;fill-opacity:1;fill-rule:nonzero;stroke:none"
         id="path74"
         inkscape:connector-curvature="0" /><path
         d="m 102.523,69.07 c 0,-0.387 -0.312,-0.699 -0.703,-0.699 -0.386,0 -0.699,0.312 -0.699,0.699 0,0.387 0.313,0.699 0.699,0.699 0.391,0 0.703,-0.312 0.703,-0.699 z"
         style="fill:#de2910;fill-opacity:1;fill-rule:nonzero;stroke:none"
         id="path76"
         inkscape:connector-curvature="0" /><path
         d="m 103.328,136.613 0,-26.641 c 22.395,-0.468 40.43,-18.785 40.43,-41.293 0,-0.117 -0.004,-0.234 -0.008,-0.351 l 61.027,0 0,68.285 -101.449,0 z m 42.395,-67.676 57.636,0 0,-0.519 -57.636,0 0,0.519 z"
         style="fill:#ed2939;fill-opacity:1;fill-rule:nonzero;stroke:none"
         id="path78"
         inkscape:connector-curvature="0" /><path
         d="m 193.66,103.535 c 0,-14.199 -11.508,-25.707 -25.707,-25.707 -14.195,0 -25.707,11.508 -25.707,25.707 0,14.195 11.512,25.707 25.707,25.707 14.199,0 25.707,-11.512 25.707,-25.707 z"
         style="fill:#ffffff;fill-opacity:1;fill-rule:nonzero;stroke:none"
         id="path80"
         inkscape:connector-curvature="0" /><path
         d="m 201.738,103.535 c 0,-13.418 -10.879,-24.293 -24.293,-24.293 -13.418,0 -24.293,10.875 -24.293,24.293 0,13.418 10.875,24.293 24.293,24.293 13.414,0 24.293,-10.875 24.293,-24.293 z"
         style="fill:#ed2939;fill-opacity:1;fill-rule:nonzero;stroke:none"
         id="path82"
         inkscape:connector-curvature="0" /><path
         d="m 171.137,102.914 -3.492,2.679 -3.493,-2.679 1.344,4.32 -3.504,2.66 4.324,-0.008 1.325,4.325 1.328,-4.325 4.324,0.012 -3.504,-2.664 1.348,-4.32 z"
         style="fill:#ffffff;fill-opacity:1;fill-rule:nonzero;stroke:none"
         id="path84"
         inkscape:connector-curvature="0" /><path
         d="m 198.535,102.914 -3.492,2.679 -3.492,-2.679 1.344,4.32 -3.5,2.66 4.32,-0.008 1.328,4.325 1.328,-4.325 4.32,0.012 -3.5,-2.664 1.344,-4.32 z"
         style="fill:#ffffff;fill-opacity:1;fill-rule:nonzero;stroke:none"
         id="path86"
         inkscape:connector-curvature="0" /><path
         d="m 184.848,113.082 -3.493,2.679 -3.488,-2.679 1.344,4.32 -3.504,2.664 4.324,-0.012 1.324,4.328 1.329,-4.328 4.324,0.012 -3.504,-2.664 1.344,-4.32 z"
         style="fill:#ffffff;fill-opacity:1;fill-rule:nonzero;stroke:none"
         id="path88"
         inkscape:connector-curvature="0" /><path
         d="m 176.262,86.644 -3.492,2.68 -3.493,-2.684 1.344,4.321 -3.5,2.664 4.32,-0.008 1.329,4.324 1.328,-4.324 4.32,0.008 -3.5,-2.66 1.344,-4.321 z"
         style="fill:#ffffff;fill-opacity:1;fill-rule:nonzero;stroke:none"
         id="path90"
         inkscape:connector-curvature="0" /><path
         d="m 193.41,86.644 -3.492,2.68 -3.492,-2.684 1.344,4.321 -3.504,2.664 4.324,-0.008 1.324,4.324 1.328,-4.324 4.324,0.008 -3.503,-2.66 1.347,-4.321 z"
         style="fill:#ffffff;fill-opacity:1;fill-rule:nonzero;stroke:none"
         id="path92"
         inkscape:connector-curvature="0" /><g
         id="g94"
         transform="matrix(1,0,0,-1,0,136.71841)"><path
           d="m 101.809,1.355 0,24.27 0.933,0 0,-24.27 -0.933,0 z m 0.468,25.379 c -22.8,0 -41.308,18.5 -41.308,41.305 0,22.805 18.508,41.313 41.308,41.313 22.801,0 41.309,-18.508 41.309,-41.313 0,-22.805 -18.508,-41.305 -41.309,-41.305 z m -100.64,41.008 0,0.594 57.242,0 0,-0.594 -57.242,0 z m 143.918,0.043 0,0.516 57.636,0 0,-0.516 -57.636,0 z m -43.746,43.309 0,24.269 0.933,0 0,-24.269 -0.933,0 z"
           style="fill:none;stroke:#ffffff;stroke-width:2.71307993;stroke-linecap:butt;stroke-linejoin:miter;stroke-miterlimit:4;stroke-opacity:1;stroke-dasharray:none"
           id="path96"
           inkscape:connector-curvature="0" /></g><path
         d="m 7.328,115.515 31.16,0 -25.211,-18.32 9.633,29.641 9.629,-29.641 -25.211,18.32 z"
         style="fill:#ffde00;fill-opacity:1;fill-rule:nonzero;stroke:none"
         id="path98"
         inkscape:connector-curvature="0" /><path
         d="m 51.441,121.515 -5.343,8.907 9.558,-4.067 -10.121,-2.328 6.817,7.836 -0.911,-10.348 z"
         style="fill:#ffde00;fill-opacity:1;fill-rule:nonzero;stroke:none"
         id="path100"
         inkscape:connector-curvature="0" /><path
         d="m 60.203,110.535 -1.469,10.281 7.231,-7.453 -10.235,1.777 9.329,4.575 -4.856,-9.18 z"
         style="fill:#ffde00;fill-opacity:1;fill-rule:nonzero;stroke:none"
         id="path102"
         inkscape:connector-curvature="0" /><path
         d="m 58.09,95 2.851,9.988 3.563,-9.762 -8.617,5.805 10.383,0.371 L 58.09,95 z"
         style="fill:#ffde00;fill-opacity:1;fill-rule:nonzero;stroke:none"
         id="path104"
         inkscape:connector-curvature="0" /><path
         d="m 45.652,85.605 6.493,8.113 -0.485,-10.378 -5.707,8.679 9.719,-3.668 -10.02,-2.746 z"
         style="fill:#ffde00;fill-opacity:1;fill-rule:nonzero;stroke:none"
         id="path106"
         inkscape:connector-curvature="0" /></g></g></svg>